<?xml version="1.0" encoding="utf-8"?>
<!-- Generator: Adobe Illustrator 21.1.0, SVG Export Plug-In . SVG Version: 6.00 Build 0)  -->
<svg version="1.1" id="Logo" xmlns="http://www.w3.org/2000/svg" xmlns:xlink="http://www.w3.org/1999/xlink" x="0px" y="0px"
	 viewBox="0 0 409.3 290.4" style="enable-background:new 0 0 409.3 290.4;" xml:space="preserve">
<style type="text/css">
	.st0{fill:#1F375B;}
	.st1{fill:#1493FF;}
</style>
<g>
	<g>
		<path class="st0" d="M0.8,289.8h10.4c0.5,0,0.8-0.4,0.8-0.8v-24.3h18.7c0.3,0,0.7-0.2,0.8-0.5l3.3-9.1c0.2-0.5-0.2-1.1-0.8-1.1
			h-22v-15.2h28.1c0.3,0,0.7-0.2,0.8-0.5l3.3-9.1c0.2-0.5-0.2-1.1-0.8-1.1H0.8c-0.5,0-0.8,0.4-0.8,0.8V289
			C0,289.5,0.4,289.8,0.8,289.8z"/>
		<path class="st0" d="M67.6,228.5l-21.9,60.2c-0.2,0.5,0.2,1.1,0.8,1.1h10.8c0.4,0,0.7-0.2,0.8-0.6l3.5-10.4h22l3.5,10.4
			c0.1,0.3,0.4,0.6,0.8,0.6h10.8c0.6,0,1-0.6,0.8-1.1l-22-60.2c-0.1-0.3-0.4-0.5-0.8-0.5h-8.3C68.1,228,67.8,228.2,67.6,228.5z
			 M65.1,268.7l7.8-22.5l7.6,22.5H65.1z"/>
		<path class="st0" d="M148.9,265.9l-24.3-37.5c-0.2-0.2-0.4-0.4-0.7-0.4h-9.5c-0.5,0-0.8,0.4-0.8,0.8V289c0,0.5,0.4,0.8,0.8,0.8
			h10.4c0.5,0,0.8-0.4,0.8-0.8v-37.1l24.3,37.6c0.2,0.2,0.4,0.4,0.7,0.4h9.5c0.5,0,0.8-0.4,0.8-0.8v-60.2c0-0.5-0.4-0.8-0.8-0.8
			h-10.4c-0.5,0-0.8,0.4-0.8,0.8V265.9z"/>
		<path class="st0" d="M277.4,268.2c0,7.1-4.3,11.4-10.8,11.4s-10.7-4.3-10.7-11.4v-39.4c0-0.5-0.4-0.8-0.8-0.8h-10.4
			c-0.5,0-0.8,0.4-0.8,0.8v39.8c0,13.1,10.1,21.7,22.8,21.7s22.8-8.6,22.8-21.7v-39.8c0-0.5-0.4-0.8-0.8-0.8h-10.3
			c-0.5,0-0.8,0.4-0.8,0.8L277.4,268.2L277.4,268.2z"/>
		<path class="st0" d="M349.8,238.2l3.3-9.1c0.2-0.5-0.2-1.1-0.8-1.1h-42.6c-0.5,0-0.8,0.4-0.8,0.8V289c0,0.5,0.4,0.8,0.8,0.8h42.6
			c0.6,0,1-0.6,0.8-1.1l-3.3-9.1c-0.1-0.3-0.4-0.5-0.8-0.5H321v-15h22.6c0.5,0,0.8-0.4,0.8-0.8v-9.1c0-0.5-0.4-0.8-0.8-0.8H321
			v-14.5h28.1C349.4,238.8,349.7,238.5,349.8,238.2z"/>
		<path class="st0" d="M405.2,279.1h-25.6v-50.3c0-0.5-0.4-0.8-0.8-0.8h-10.4c-0.5,0-0.8,0.4-0.8,0.8V289c0,0.5,0.4,0.8,0.8,0.8
			h40.1c0.6,0,1-0.6,0.8-1.1l-3.3-9.1C405.8,279.3,405.5,279.1,405.2,279.1z"/>
		<path class="st0" d="M220.1,233.9c-4.1-4.1-9.9-5.9-16.3-5.9h-24.5c-0.5,0-0.9,0.5-0.8,1l1.8,9.1c0.1,0.4,0.4,0.7,0.8,0.7h12.5
			h3.2h6c4.2,0,6.9,1.3,9,3.8c2.3,2.8,2.6,6.7,2.6,16.1s-0.3,13.8-2.6,16.6c-2.1,2.5-4.9,3.8-9,3.8h-9.1v-32.2
			c0-0.5-0.4-0.8-0.8-0.8h-10.4c-0.5,0-0.8,0.4-0.8,0.8V289c0,0.5,0.4,0.8,0.8,0.8h21.5c6.4,0,12.2-1.8,16.3-5.9
			c6.9-7,6.3-16,6.3-25.3C226.4,249.4,227.1,240.8,220.1,233.9z"/>
	</g>
	<g>
		<path class="st1" d="M189.3,29.1c3.4-7.3,7.3-14.2,11.8-20.6c1.8-2.6,3.7-5,5.6-7.3c0.4-0.5,0.1-1.1-0.5-1.1c-0.5,0-1,0-1.5,0
			c-20.1,0-39.5,3.4-57.5,9.6c-9.3,3.2-18.3,7.2-26.9,11.9c-2.4,1.3-3.8,3.8-3.7,6.5c0.2,10,1.3,19.7,3.2,29.2
			c1.7,8.9,4.1,17.6,7.1,26c3.6,10.1,8.1,19.8,13.5,28.9c9.8,16.9,22.3,32,37,44.7c2.5,2.2,5.1,4.3,7.7,6.3c0.6,0.4,1.4-0.2,1.1-0.8
			c-1.1-2.7-2.1-5.5-3-8.3c-4.5-13.5-7.3-28-8.2-43c0-0.7-0.3-1.3-0.6-1.8c-3.7-5.1-7-10.3-10-15.9c2.7-1.5,5.6-2.8,8.5-3.9
			c1.3-0.5,2.1-1.7,2.2-3.1c0.7-10,2.2-19.9,4.6-29.3c0.1-0.5-0.3-1-0.8-0.9c-9.1,2.1-17.9,5.2-26,9.3c-2.3-7.8-4-15.8-5-24
			c12.2-5.2,25.3-8.7,38.9-10.4C187.7,31,188.8,30.2,189.3,29.1z"/>
		<path class="st1" d="M289,21.5c-8.6-4.7-17.5-8.6-26.9-11.9c-12.5-4.3-25.6-7.2-39.1-8.6c-1.1-0.1-2.1,0.3-2.9,1
			c-7.3,7.5-13.8,16.6-19.1,27c-0.2,0.5,0.1,1,0.6,1c1,0,1.9,0,2.9,0c20.2,0,39.5,4.1,57.1,11.5c-1,8.2-2.7,16.3-5,24
			c-2.9,9.7-6.8,19-11.6,27.8c-10,18.4-23.9,34.5-40.5,47c-5.8-4.4-11.2-9.1-16.2-14.3c-0.5-0.5-1.3-0.1-1.2,0.6
			c1.3,7.6,3,15,5.2,22c3.1,9.8,7.1,18.8,11.9,27c0.2,0.3,0.6,0.5,1,0.3c9.5-5.6,18.5-12,26.8-19.2c14.6-12.7,27.2-27.8,37-44.7
			c5.3-9.1,9.8-18.8,13.5-28.9c3-8.4,5.4-17.1,7.1-26c1.8-9.5,2.9-19.3,3.2-29.2C292.8,25.2,291.4,22.7,289,21.5z"/>
	</g>
</g>
</svg>
