<?xml version="1.0" encoding="utf-8"?>
<!-- Generator: Adobe Illustrator 21.1.0, SVG Export Plug-In . SVG Version: 6.00 Build 0)  -->
<svg version="1.1" id="Logo" xmlns="http://www.w3.org/2000/svg" xmlns:xlink="http://www.w3.org/1999/xlink" x="0px" y="0px"
	 viewBox="0 0 986.2 176.1" style="enable-background:new 0 0 986.2 176.1;" xml:space="preserve">
<style type="text/css">
	.st0{fill:#1F375B;}
	.st1{fill:#1493FF;}
</style>
<g>
	<g>
		<path class="st0" d="M234.2,144.9h19.2c0.8,0,1.5-0.7,1.5-1.5V98.7h34.4c0.6,0,1.2-0.4,1.4-1l6.1-16.8c0.3-0.8-0.1-1.6-0.9-1.9
			c-0.2-0.1-0.3-0.1-0.5-0.1h-40.5v-28h51.7c0.6,0,1.2-0.4,1.4-1l6.2-16.8c0.3-0.8-0.1-1.6-0.9-1.9c-0.2-0.1-0.3-0.1-0.5-0.1h-78.6
			c-0.8,0-1.5,0.7-1.5,1.5v110.8C232.7,144.3,233.4,144.9,234.2,144.9z"/>
		<path class="st0" d="M357.2,32.1l-40.3,110.8c-0.3,0.8,0.1,1.6,0.9,1.9c0.2,0.1,0.3,0.1,0.5,0.1h20c0.6,0,1.2-0.4,1.4-1l6.5-19.1
			h40.5l6.4,19.1c0.2,0.6,0.8,1,1.4,1h19.9c0.8,0,1.5-0.7,1.5-1.5c0-0.2,0-0.3-0.1-0.5L375.4,32.1c-0.2-0.6-0.8-1-1.4-1h-15.3
			C358,31.1,357.5,31.5,357.2,32.1z M352.5,106.1l14.4-41.4l13.9,41.4H352.5L352.5,106.1z"/>
		<path class="st0" d="M506.8,100.8l-44.7-69c-0.3-0.4-0.8-0.7-1.3-0.7h-17.5c-0.8,0-1.5,0.7-1.5,1.5l0,0v110.8
			c0,0.8,0.7,1.5,1.5,1.5l0,0h19.2c0.8,0,1.5-0.7,1.5-1.5l0,0V75l44.7,69.2c0.3,0.4,0.8,0.7,1.3,0.7h17.5c0.8,0,1.5-0.7,1.5-1.5l0,0
			V32.6c0-0.8-0.7-1.5-1.5-1.5l0,0h-19.2c-0.8,0-1.5,0.7-1.5,1.5l0,0V100.8z"/>
		<path class="st0" d="M743.3,105.1c0,13.1-7.8,21-19.8,21s-19.7-7.8-19.7-21V32.6c0-0.8-0.7-1.5-1.5-1.5l0,0h-19.2
			c-0.8,0-1.5,0.7-1.5,1.5l0,0v73.3c0,24.2,18.6,40,41.9,40s41.9-15.8,41.9-40V32.6c0-0.8-0.7-1.5-1.5-1.5l0,0h-19
			c-0.8,0-1.5,0.7-1.5,1.5l0,0L743.3,105.1L743.3,105.1L743.3,105.1L743.3,105.1z"/>
		<path class="st0" d="M876.7,49.9l6.1-16.8c0.3-0.8-0.1-1.6-0.9-1.9c-0.2-0.1-0.3-0.1-0.5-0.1h-78.5c-0.8,0-1.5,0.7-1.5,1.5l0,0
			v110.8c0,0.8,0.7,1.5,1.5,1.5l0,0h78.5c0.8,0,1.5-0.7,1.5-1.5c0-0.2,0-0.3-0.1-0.5l-6.1-16.8c-0.2-0.6-0.8-1-1.4-1h-51.7V97.4
			h41.6c0.8,0,1.5-0.7,1.5-1.5l0,0V79.1c0-0.8-0.7-1.5-1.5-1.5l0,0h-41.6V50.9h51.7C875.9,50.9,876.5,50.5,876.7,49.9z"/>
		<path class="st0" d="M978.6,125.1h-47V32.6c0-0.8-0.7-1.5-1.5-1.5c0,0,0,0-0.1,0h-19.2c-0.8,0-1.5,0.7-1.5,1.5l0,0v110.8
			c0,0.8,0.7,1.5,1.5,1.5l0,0h73.8c0.8,0,1.5-0.7,1.5-1.5c0-0.2,0-0.3-0.1-0.5l-6.1-16.8C979.8,125.5,979.2,125.1,978.6,125.1z"/>
		<path class="st0" d="M637.9,42c-7.5-7.5-18.2-10.9-30.1-10.9h-45.2c-0.8,0-1.5,0.7-1.5,1.5c0,0.1,0,0.2,0,0.3l3.3,16.8
			c0.2,0.7,0.7,1.2,1.4,1.2h39.7c7.7,0,12.8,2.4,16.6,7c4.2,5.1,4.8,12.3,4.8,29.6s-0.6,25.4-4.8,30.5c-3.8,4.6-9,7-16.6,7H589V65.9
			c0-0.8-0.7-1.5-1.5-1.5l0,0h-19.2c-0.8,0-1.5,0.7-1.5,1.5l0,0v77.6c0,0.8,0.7,1.5,1.5,1.5l0,0h39.6c11.8,0,22.6-3.4,30.1-10.9
			c12.8-12.8,11.5-29.4,11.5-46.5C649.4,70.4,650.7,54.7,637.9,42z"/>
	</g>
	<g>
		<path class="st1" d="M72.8,29.1c3.4-7.3,7.3-14.2,11.8-20.6c1.8-2.6,3.7-5,5.6-7.3C90.5,0.7,90.2,0,89.6,0c-0.5,0-1,0-1.5,0
			C68,0,48.6,3.4,30.6,9.6c-9.3,3.2-18.3,7.2-26.9,11.9c-2.4,1.3-3.8,3.8-3.7,6.5c0.2,10,1.3,19.7,3.2,29.2c1.7,8.9,4.1,17.6,7.1,26
			c3.6,10.1,8.1,19.8,13.5,28.9c9.8,16.9,22.3,32,37,44.7c2.5,2.2,5.1,4.3,7.7,6.3c0.6,0.4,1.4-0.2,1.1-0.8c-1.1-2.7-2.1-5.5-3-8.3
			c-4.5-13.5-7.3-28-8.2-43c0-0.7-0.3-1.3-0.6-1.8c-3.7-5.1-7-10.3-10-15.9c2.7-1.5,5.6-2.8,8.5-3.9c1.3-0.5,2.1-1.7,2.2-3.1
			c0.7-10,2.2-19.9,4.6-29.3c0.1-0.5-0.3-1-0.8-0.9c-9.1,2.1-17.9,5.2-26,9.3c-2.3-7.8-4-15.8-5-24c12.2-5.2,25.3-8.7,38.9-10.4
			C71.2,31,72.2,30.2,72.8,29.1z"/>
		<path class="st1" d="M172.5,21.5c-8.6-4.7-17.5-8.6-26.9-11.9c-12.5-4.3-25.5-7.2-39.1-8.6c-1.1-0.1-2.1,0.3-2.9,1
			c-7.3,7.5-13.8,16.6-19.1,27c-0.2,0.5,0.1,1,0.6,1c1,0,1.9,0,2.9,0c20.2,0,39.5,4.1,57.1,11.5c-1,8.2-2.7,16.3-5,24
			c-2.9,9.7-6.8,19-11.6,27.8c-10,18.4-23.9,34.5-40.5,47c-5.8-4.4-11.2-9.1-16.2-14.3c-0.5-0.5-1.3-0.1-1.2,0.6
			c1.3,7.6,3,15,5.2,22c3.1,9.8,7.1,18.8,11.9,27c0.2,0.3,0.6,0.5,1,0.3c9.5-5.6,18.5-12,26.8-19.2c14.6-12.7,27.2-27.8,37-44.7
			c5.3-9.2,9.8-18.8,13.5-28.9c3-8.4,5.4-17.1,7.1-26c1.8-9.5,2.9-19.3,3.2-29.2C176.3,25.2,174.9,22.7,172.5,21.5z"/>
	</g>
</g>
</svg>
