<?xml version="1.0" encoding="utf-8"?>
<!-- Generator: Adobe Illustrator 21.1.0, SVG Export Plug-In . SVG Version: 6.00 Build 0)  -->
<svg version="1.1" id="Logo" xmlns="http://www.w3.org/2000/svg" xmlns:xlink="http://www.w3.org/1999/xlink" x="0px" y="0px"
	 viewBox="0 0 176.2 176.1" style="enable-background:new 0 0 176.2 176.1;" xml:space="preserve">
<style type="text/css">
	.st0{fill:#1493FF;}
</style>
<g>
	<path class="st0" d="M72.8,29.1c3.4-7.3,7.3-14.2,11.8-20.6c1.8-2.6,3.7-5,5.6-7.3C90.5,0.7,90.2,0,89.6,0c-0.5,0-1,0-1.5,0
		C68,0,48.6,3.4,30.6,9.6c-9.3,3.2-18.3,7.2-26.9,11.9c-2.4,1.3-3.8,3.8-3.7,6.5c0.2,10,1.3,19.7,3.2,29.2c1.7,8.9,4.1,17.6,7.1,26
		c3.6,10.1,8.1,19.8,13.5,28.9c9.8,16.9,22.3,32,37,44.7c2.5,2.2,5.1,4.3,7.7,6.3c0.6,0.4,1.4-0.2,1.1-0.8c-1.1-2.7-2.1-5.5-3-8.3
		c-4.5-13.5-7.3-28-8.2-43c0-0.7-0.3-1.3-0.6-1.8c-3.7-5.1-7-10.3-10-15.9c2.7-1.5,5.6-2.8,8.5-3.9c1.3-0.5,2.1-1.7,2.2-3.1
		c0.7-10,2.2-19.9,4.6-29.3c0.1-0.5-0.3-1-0.8-0.9c-9.1,2.1-17.9,5.2-26,9.3c-2.3-7.8-4-15.8-5-24c12.2-5.2,25.3-8.7,38.9-10.4
		C71.2,31,72.2,30.2,72.8,29.1z"/>
	<path class="st0" d="M172.5,21.5c-8.6-4.7-17.5-8.6-26.9-11.9c-12.5-4.3-25.6-7.2-39.1-8.6c-1.1-0.1-2.1,0.3-2.9,1
		c-7.3,7.5-13.8,16.6-19.1,27c-0.2,0.5,0.1,1,0.6,1c1,0,1.9,0,2.9,0c20.2,0,39.5,4.1,57.1,11.5c-1,8.2-2.7,16.3-5,24
		c-2.9,9.7-6.8,19-11.6,27.8c-10,18.4-23.9,34.5-40.5,47c-5.8-4.4-11.2-9.1-16.2-14.3c-0.5-0.5-1.3-0.1-1.2,0.6c1.3,7.6,3,15,5.2,22
		c3.1,9.8,7.1,18.8,11.9,27c0.2,0.3,0.6,0.5,1,0.3c9.5-5.6,18.5-12,26.8-19.2c14.6-12.7,27.2-27.8,37-44.7
		c5.3-9.1,9.8-18.8,13.5-28.9c3-8.4,5.4-17.1,7.1-26c1.8-9.5,2.9-19.3,3.2-29.2C176.3,25.2,174.9,22.7,172.5,21.5z"/>
</g>
</svg>
